<svg width="40" height="40" xmlns="http://www.w3.org/2000/svg"><path d="m 39.4,20.4546 c 0,-1.4182 -0.1272,-2.7818 -0.3636,-4.091 H 20.2 V 24.1 H 30.9636 C 30.5,26.6 29.091,28.7182 26.9728,30.1364 v 5.0182 h 6.4636 C 37.2182,31.6728 39.4,26.5454 39.4,20.4546 Z" fill="#4285f4" /><path d="m 20.2,40 c 5.4,0 9.9272,-1.791 13.2362,-4.8454 l -6.4636,-5.0182 c -1.7908,1.2 -4.0818,1.909 -6.7726,1.909 -5.2092,0 -9.6182,-3.5182 -11.191,-8.2454 H 2.3272 v 5.1818 C 5.6182,35.5182 12.3818,40 20.2,40 Z" fill="#34a853" /><path d="M 9.009,23.8 C 8.609,22.6 8.3818,21.3182 8.3818,20 c 0,-1.3182 0.2272,-2.6 0.6272,-3.8 V 11.0182 H 2.3272 C 0.9728,13.7182 0.2,16.7728 0.2,20 c 0,3.2272 0.7728,6.2818 2.1272,8.9818 z" fill="#fbbc04" /><path d="m 20.2,7.9546 c 2.9362,0 5.5726,1.009 7.6454,2.9908 L 33.5818,5.209 C 30.1182,1.9818 25.5908,0 20.2,0 12.3818,0 5.6182,4.4818 2.3272,11.0182 L 9.009,16.2 C 10.5818,11.4728 14.9908,7.9546 20.2,7.9546 Z" fill="#e94235" /></svg>
